
Release info:

General
Format : AVI
Format/Info : Audio Video Interleave
File size : 702 MiB
Duration : 1h 56mn
Overall bit rate : 844 Kbps


Video
ID : 0
Format : MPEG-4 Visual
Format settings, BVOP : 1
Format settings, QPel : No
Format settings, GMC : No warppoints
Format settings, Matrix : Default (H.263)
Muxing mode : Packed bitstream
Codec ID : DX50
Codec ID/Hint : DivX 5
Duration : 1h 56mn
Bit rate : 389 Kbps
Width : 416 pixels
Height : 176 pixels
Display aspect ratio : 2.35:1
Frame rate : 25.000 fps
Color space : YUV
Chroma subsampling : 4:2:0
Bit depth : 8 bits
Scan type : Progressive
Compression mode : Lossy
Bits/(Pixel*Frame) : 0.212
Stream size : 323 MiB (46%)
Writing library : DivX 6.6.1

Audio
ID : 1
Format : AC-3
Format/Info : Audio Coding 3
Mode extension : CM (complete main)
Format settings, Endianness : Big
Codec ID : 2000
Duration : 1h 56mn
Bit rate mode : Constant
Bit rate : 448 Kbps
Channel(s) : 6 channels
Channel positions : Front: L C R, Side: L R, LFE
Sampling rate : 48.0 KHz
Bit depth : 16 bits
Compression mode : Lossy
Stream size : 373 MiB (53%)
Alignment : Split accross interleaves
Interleave, duration : 96 ms (2.40 video frames)
Interleave, preload duration : 96 ms
Language : English


IMDB Info:

Unless a comet can be destroyed before colliding with Earth, only those allowed into shelters will survive. Which people will survive?

Director: Mimi Leder
Writers: Bruce Joel Rubin, Michael Tolkin
Stars: Robert Duvall, Téa Leoni and Elijah Wood 

Genres: Action | Drama | Sci-Fi | Thriller
 
http://www.imdb.com/title/tt0120647/

Screen Shot:
 
http://www.shotpix.com/images/36987898174265630857.png 
http://www.shotpix.com/images/00231735755615272101.png 
http://www.shotpix.com/images/04374517365020829723.png 
http://www.shotpix.com/images/27670434063670816338.png 
http://www.shotpix.com/images/11188314421285495991.png 
http://www.shotpix.com/images/79620959881022904029.png 
http://www.shotpix.com/images/69460717753328066828.png 
http://www.shotpix.com/images/10896873240008243066.png